<?xml version="1.0" encoding="UTF-8"?>
<svg version="1.1" xmlns="http://www.w3.org/2000/svg" width="128" height="128">
<path d="M0 0 C4.10675296 3.19795168 6.34368707 6.56080702 7.74609375 11.64453125 C7.86067371 18.74848862 5.11626269 23.16812907 0.74609375 28.64453125 C0.00359375 29.30453125 -0.73890625 29.96453125 -1.50390625 30.64453125 C-4.2635684 33.79843085 -4.5951524 37.58799436 -5.25390625 41.64453125 C-5.89457031 41.71929687 -6.53523438 41.7940625 -7.1953125 41.87109375 C-13.3702708 42.80250603 -13.3702708 42.80250603 -18.37890625 46.26953125 C-29.31104982 56.73866639 -45.40969365 60.67966318 -60.06640625 60.95703125 C-70.16821321 60.70631422 -79.21234284 59.16502742 -86.9296875 52.11328125 C-90.24180338 48.157402 -91.07384786 44.38347996 -90.80859375 39.2734375 C-89.56013183 33.35643137 -86.35863051 28.14122406 -81.44140625 24.64453125 C-78.71649163 22.15318074 -78.9187069 21.17234836 -78.69140625 17.58203125 C-78.69011719 16.72480469 -78.68882813 15.86757813 -78.6875 14.984375 C-78.25390625 12.64453125 -78.25390625 12.64453125 -76.390625 10.81640625 C-73.59572384 9.2835537 -72.24981703 9.77729392 -69.25390625 10.64453125 C-66.59374777 10.64453125 -65.91993538 9.69885901 -63.87890625 8.01953125 C-46.78102043 -4.97241066 -19.53583317 -11.74858598 0 0 Z M-59.25390625 8.64453125 C-59.25390625 8.97453125 -59.25390625 9.30453125 -59.25390625 9.64453125 C-56.61390625 9.64453125 -53.97390625 9.64453125 -51.25390625 9.64453125 C-51.25390625 12.61453125 -51.25390625 15.58453125 -51.25390625 18.64453125 C-50.92390625 18.64453125 -50.59390625 18.64453125 -50.25390625 18.64453125 C-49.92390625 16.00453125 -49.59390625 13.36453125 -49.25390625 10.64453125 C-41.66390625 10.31453125 -34.07390625 9.98453125 -26.25390625 9.64453125 C-26.25390625 12.28453125 -26.25390625 14.92453125 -26.25390625 17.64453125 C-25.30515625 16.84015625 -24.35640625 16.03578125 -23.37890625 15.20703125 C-19.54331384 11.95511594 -17.33849155 11.50730869 -12.25390625 11.51953125 C-10.64515625 11.51566406 -10.64515625 11.51566406 -9.00390625 11.51171875 C-6.25390625 11.64453125 -6.25390625 11.64453125 -4.25390625 12.64453125 C-4.25390625 15.28453125 -4.25390625 17.92453125 -4.25390625 20.64453125 C-5.24390625 20.31453125 -6.23390625 19.98453125 -7.25390625 19.64453125 C-10.75671862 19.27730092 -14.05025428 18.98446404 -17.19140625 20.70703125 C-18.8351932 23.7045251 -19.13471824 26.24767307 -19.25390625 29.64453125 C-18.43938309 32.2030415 -18.43938309 32.2030415 -16.25390625 33.64453125 C-11.84055343 34.13490379 -8.02423084 34.0901472 -4.25390625 31.64453125 C-0.53963559 26.1919319 1.18574805 20.72211133 0.24609375 14.14453125 C-2.01798879 8.86167198 -5.20576822 6.21585822 -10.26953125 3.60546875 C-26.12911011 -2.32801006 -44.4182013 2.07389543 -59.25390625 8.64453125 Z M-67.25390625 13.64453125 C-66.2789248 15.14725495 -65.29881236 16.64665088 -64.31640625 18.14453125 C-63.77113281 18.97984375 -63.22585937 19.81515625 -62.6640625 20.67578125 C-62.19871094 21.32546875 -61.73335937 21.97515625 -61.25390625 22.64453125 C-60.92390625 22.64453125 -60.59390625 22.64453125 -60.25390625 22.64453125 C-60.25390625 18.68453125 -60.25390625 14.72453125 -60.25390625 10.64453125 C-63.14899136 10.64453125 -64.85087098 12.12682477 -67.25390625 13.64453125 Z M-50.25390625 19.64453125 C-50.58390625 26.57453125 -50.91390625 33.50453125 -51.25390625 40.64453125 C-53.56390625 40.97453125 -55.87390625 41.30453125 -58.25390625 41.64453125 C-62.48812183 38.41846224 -65.20805664 33.95948486 -68.25390625 29.64453125 C-68.58390625 29.64453125 -68.91390625 29.64453125 -69.25390625 29.64453125 C-69.25390625 33.93453125 -69.25390625 38.22453125 -69.25390625 42.64453125 C-72.22390625 42.64453125 -75.19390625 42.64453125 -78.25390625 42.64453125 C-78.25390625 37.03453125 -78.25390625 31.42453125 -78.25390625 25.64453125 C-82.36105232 29.75167732 -83.3862821 31.46798487 -83.56640625 36.95703125 C-83.49863994 41.59525896 -82.38038984 44.10666824 -79.25390625 47.64453125 C-69.58037664 55.38335494 -57.02262128 54.71769214 -45.25390625 53.64453125 C-35.72136929 52.02846393 -26.61269286 48.47085767 -18.25390625 43.64453125 C-18.99640625 43.10828125 -19.73890625 42.57203125 -20.50390625 42.01953125 C-25.33963888 37.84321671 -27.7046207 33.92017867 -28.23828125 27.61328125 C-28.26001544 24.87477387 -27.85370973 22.31032448 -27.25390625 19.64453125 C-29.23390625 19.64453125 -31.21390625 19.64453125 -33.25390625 19.64453125 C-33.58390625 26.90453125 -33.91390625 34.16453125 -34.25390625 41.64453125 C-36.89390625 41.64453125 -39.53390625 41.64453125 -42.25390625 41.64453125 C-42.25390625 34.38453125 -42.25390625 27.12453125 -42.25390625 19.64453125 C-44.89390625 19.64453125 -47.53390625 19.64453125 -50.25390625 19.64453125 Z " fill="#F77F30" transform="translate(90.25390625,33.35546875)"/>
<path d="M0 0 C4.10675296 3.19795168 6.34368707 6.56080702 7.74609375 11.64453125 C7.86067371 18.74848862 5.11626269 23.16812907 0.74609375 28.64453125 C0.00359375 29.30453125 -0.73890625 29.96453125 -1.50390625 30.64453125 C-4.2635684 33.79843085 -4.5951524 37.58799436 -5.25390625 41.64453125 C-5.89457031 41.71929687 -6.53523438 41.7940625 -7.1953125 41.87109375 C-13.3702708 42.80250603 -13.3702708 42.80250603 -18.37890625 46.26953125 C-29.31104982 56.73866639 -45.40969365 60.67966318 -60.06640625 60.95703125 C-70.16821321 60.70631422 -79.21234284 59.16502742 -86.9296875 52.11328125 C-90.24180338 48.157402 -91.07384786 44.38347996 -90.80859375 39.2734375 C-89.56013183 33.35643137 -86.35863051 28.14122406 -81.44140625 24.64453125 C-78.71649163 22.15318074 -78.9187069 21.17234836 -78.69140625 17.58203125 C-78.69011719 16.72480469 -78.68882813 15.86757813 -78.6875 14.984375 C-78.25390625 12.64453125 -78.25390625 12.64453125 -76.390625 10.81640625 C-73.59572384 9.2835537 -72.24981703 9.77729392 -69.25390625 10.64453125 C-66.59374777 10.64453125 -65.91993538 9.69885901 -63.87890625 8.01953125 C-46.78102043 -4.97241066 -19.53583317 -11.74858598 0 0 Z M-59.56640625 9.45703125 C-65.54657738 12.65461991 -69.70055597 13.44141762 -76.25390625 11.64453125 C-77.66302721 14.46277317 -77.36574178 16.81704407 -77.3515625 19.96484375 C-77.34833984 21.22167969 -77.34511719 22.47851562 -77.34179688 23.7734375 C-77.33341797 25.09214844 -77.32503906 26.41085938 -77.31640625 27.76953125 C-77.31139114 29.10937336 -77.30682826 30.44921725 -77.30273438 31.7890625 C-77.29091711 35.07426331 -77.27444242 38.35937522 -77.25390625 41.64453125 C-74.94390625 41.64453125 -72.63390625 41.64453125 -70.25390625 41.64453125 C-70.25390625 37.02453125 -70.25390625 32.40453125 -70.25390625 27.64453125 C-69.59390625 27.64453125 -68.93390625 27.64453125 -68.25390625 27.64453125 C-68.58390625 28.30453125 -68.91390625 28.96453125 -69.25390625 29.64453125 C-69.32483467 31.85182355 -69.3380565 34.06120577 -69.31640625 36.26953125 C-69.30738281 37.45804688 -69.29835938 38.6465625 -69.2890625 39.87109375 C-69.27746094 40.78632812 -69.26585937 41.7015625 -69.25390625 42.64453125 C-72.22390625 42.64453125 -75.19390625 42.64453125 -78.25390625 42.64453125 C-78.25390625 37.03453125 -78.25390625 31.42453125 -78.25390625 25.64453125 C-82.36105232 29.75167732 -83.3862821 31.46798487 -83.56640625 36.95703125 C-83.49863994 41.59525896 -82.38038984 44.10666824 -79.25390625 47.64453125 C-69.58037664 55.38335494 -57.02262128 54.71769214 -45.25390625 53.64453125 C-35.72136929 52.02846393 -26.61269286 48.47085767 -18.25390625 43.64453125 C-18.25390625 43.31453125 -18.25390625 42.98453125 -18.25390625 42.64453125 C-14.29390625 41.98453125 -10.33390625 41.32453125 -6.25390625 40.64453125 C-6.21148902 38.3115835 -6.21297688 35.97750558 -6.25390625 33.64453125 C-6.58390625 33.31453125 -6.91390625 32.98453125 -7.25390625 32.64453125 C-6.26390625 32.31453125 -5.27390625 31.98453125 -4.25390625 31.64453125 C-0.53096589 26.26552432 1.17328743 20.634887 0.24609375 14.14453125 C-2.01798879 8.86167198 -5.20576822 6.21585822 -10.26953125 3.60546875 C-26.12218369 -2.3254187 -45.23921874 1.68113956 -59.56640625 9.45703125 Z " fill="#F7873E" transform="translate(90.25390625,33.35546875)"/>
<path d="M0 0 C4.17257103 -0.49673465 5.68777124 -0.22039677 9.1875 2.25 C12.81931329 5.80110633 14.81717728 8.09973446 16 13 C16.66 13.33 17.32 13.66 18 14 C18 9.38 18 4.76 18 0 C19.98 0 21.96 0 24 0 C24.07421454 3.93260944 24.12863136 7.86494722 24.16479492 11.7980957 C24.18728333 13.79327701 24.22540198 15.78826213 24.26367188 17.78320312 C24.27333984 19.03681641 24.28300781 20.29042969 24.29296875 21.58203125 C24.3086792 22.73936768 24.32438965 23.8967041 24.34057617 25.08911133 C24 28 24 28 22.6328125 29.90185547 C21 31 21 31 18.58203125 30.98828125 C15.22382064 29.70291471 13.88415387 28.01295122 11.6875 25.1875 C10.99011719 24.31480469 10.29273438 23.44210938 9.57421875 22.54296875 C8 20 8 20 8 16 C7.34 16 6.68 16 6 16 C6 20.62 6 25.24 6 30 C3.69 30 1.38 30 -1 30 C-1.0246985 26.04900072 -1.04285923 22.09803126 -1.05493164 18.14697266 C-1.06244036 16.14093449 -1.0751447 14.13491798 -1.08789062 12.12890625 C-1.09111328 10.87207031 -1.09433594 9.61523438 -1.09765625 8.3203125 C-1.10289307 7.15773926 -1.10812988 5.99516602 -1.11352539 4.79736328 C-1 2 -1 2 0 0 Z " fill="#F97018" transform="translate(14,45)"/>
<path d="M0 0 C4.10675296 3.19795168 6.34368707 6.56080702 7.74609375 11.64453125 C7.87937676 16.63312394 6.66838081 20.57874056 3.74609375 24.64453125 C2.26109375 24.14953125 2.26109375 24.14953125 0.74609375 23.64453125 C0.74609375 20.01453125 0.74609375 16.38453125 0.74609375 12.64453125 C0.08609375 12.64453125 -0.57390625 12.64453125 -1.25390625 12.64453125 C-1.97578125 11.71640625 -2.69765625 10.78828125 -3.44140625 9.83203125 C-7.23567969 5.08639131 -12.4113973 3.56195001 -18.25390625 2.64453125 C-33.23613805 1.5444505 -46.26047913 3.21112556 -59.56640625 10.51953125 C-64.18471619 12.9941888 -66.93683562 14.14089235 -72.12890625 13.08203125 C-74.55859375 12.328125 -74.55859375 12.328125 -76.25390625 11.64453125 C-75.59390625 10.98453125 -74.93390625 10.32453125 -74.25390625 9.64453125 C-71.75390625 10.01953125 -71.75390625 10.01953125 -69.25390625 10.64453125 C-66.59374777 10.64453125 -65.91993538 9.69885901 -63.87890625 8.01953125 C-46.78102043 -4.97241066 -19.53583317 -11.74858598 0 0 Z " fill="#F78337" transform="translate(90.25390625,33.35546875)"/>
<path d="M0 0 C2.05078125 0.03255208 4.1015625 0.06510417 6.15234375 0.09765625 C9.83417393 7.21028273 13.25774445 14.41284995 16.52734375 21.72265625 C16.88505859 22.51655762 17.24277344 23.31045898 17.61132812 24.12841797 C17.94197266 24.87365723 18.27261719 25.61889648 18.61328125 26.38671875 C18.91024902 27.05396973 19.2072168 27.7212207 19.51318359 28.40869141 C20.15234375 30.09765625 20.15234375 30.09765625 20.15234375 32.09765625 C17.18234375 32.09765625 14.21234375 32.09765625 11.15234375 32.09765625 C10.49234375 29.78765625 9.83234375 27.47765625 9.15234375 25.09765625 C4.53234375 25.09765625 -0.08765625 25.09765625 -4.84765625 25.09765625 C-5.50765625 27.40765625 -6.16765625 29.71765625 -6.84765625 32.09765625 C-9.81765625 32.09765625 -12.78765625 32.09765625 -15.84765625 32.09765625 C-14.53022889 27.98064786 -13.02115564 24.0343503 -11.28125 20.078125 C-10.79591797 18.97404297 -10.31058594 17.86996094 -9.81054688 16.73242188 C-9.30716797 15.59482422 -8.80378906 14.45722656 -8.28515625 13.28515625 C-7.77791016 12.12822266 -7.27066406 10.97128906 -6.74804688 9.77929688 C-2.49363045 0.13179865 -2.49363045 0.13179865 0 0 Z M1.15234375 10.09765625 C0.16234375 13.06765625 -0.82765625 16.03765625 -1.84765625 19.09765625 C0.79234375 19.09765625 3.43234375 19.09765625 6.15234375 19.09765625 C5.16234375 16.12765625 4.17234375 13.15765625 3.15234375 10.09765625 C2.49234375 10.09765625 1.83234375 10.09765625 1.15234375 10.09765625 Z " fill="#727272" transform="translate(97.84765625,67.90234375)"/>
<path d="M0 0 C7.26 0 14.52 0 22 0 C22 2.31 22 4.62 22 7 C19.69 7 17.38 7 15 7 C15 14.59 15 22.18 15 30 C12.69 30 10.38 30 8 30 C8 22.41 8 14.82 8 7 C5.36 7 2.72 7 0 7 C0 4.69 0 2.38 0 0 Z " fill="#F86C10" transform="translate(41,45)"/>
<path d="M0 0 C1.35421764 0.01720422 2.70840241 0.03757796 4.0625 0.0625 C4.7225 0.0625 5.3825 0.0625 6.0625 0.0625 C13.72916667 0.0625 21.39583333 0.0625 29.0625 0.0625 C29.5575 3.5275 29.5575 3.5275 30.0625 7.0625 C30.84625 6.258125 31.63 5.45375 32.4375 4.625 C36.23887465 0.91413427 37.98258364 0.94462855 43.1875 1 C44.28320312 1.00902344 45.37890625 1.01804688 46.5078125 1.02734375 C47.77238281 1.04474609 47.77238281 1.04474609 49.0625 1.0625 C49.0625 1.3925 49.0625 1.7225 49.0625 2.0625 C47.79792969 2.10117187 47.79792969 2.10117187 46.5078125 2.140625 C45.41210938 2.19734375 44.31640625 2.2540625 43.1875 2.3125 C42.09695312 2.35890625 41.00640625 2.4053125 39.8828125 2.453125 C38.48675781 2.75476562 38.48675781 2.75476562 37.0625 3.0625 C35.82084943 4.93642322 35.82084943 4.93642322 35.0625 7.0625 C29.23916072 11.20602987 29.23916072 11.20602987 24.828125 10.66796875 C23.91546875 10.46816406 23.0028125 10.26835938 22.0625 10.0625 C22.07035522 11.05431274 22.07035522 11.05431274 22.07836914 12.06616211 C22.09907656 15.04409851 22.11214012 18.02201982 22.125 21 C22.13337891 22.04091797 22.14175781 23.08183594 22.15039062 24.15429688 C22.15522461 25.63833008 22.15522461 25.63833008 22.16015625 27.15234375 C22.16801147 28.52700806 22.16801147 28.52700806 22.17602539 29.92944336 C22.0625 32.0625 22.0625 32.0625 21.0625 33.0625 C18.39191149 33.20365161 15.73817762 33.10497107 13.0625 33.0625 C12.06959874 30.08379623 12.00725452 28.47067115 12.18359375 25.39453125 C12.23193359 24.50185547 12.28027344 23.60917969 12.33007812 22.68945312 C12.38615234 21.76068359 12.44222656 20.83191406 12.5 19.875 C12.55220703 18.93462891 12.60441406 17.99425781 12.65820312 17.02539062 C12.78781918 14.70408499 12.92278181 12.38321591 13.0625 10.0625 C10.4225 10.0625 7.7825 10.0625 5.0625 10.0625 C5.07410156 11.32707031 5.08570313 12.59164062 5.09765625 13.89453125 C5.10703566 15.55468602 5.1161357 17.21484239 5.125 18.875 C5.13337891 19.70837891 5.14175781 20.54175781 5.15039062 21.40039062 C5.15361328 22.20283203 5.15683594 23.00527344 5.16015625 23.83203125 C5.16539307 24.57042236 5.17062988 25.30881348 5.17602539 26.06958008 C5.0625 28.0625 5.0625 28.0625 4.0625 31.0625 C3.4025 30.7325 2.7425 30.4025 2.0625 30.0625 C2.3925 20.8225 2.7225 11.5825 3.0625 2.0625 C1.0825 2.0625 -0.8975 2.0625 -2.9375 2.0625 C-2.9375 6.6825 -2.9375 11.3025 -2.9375 16.0625 C-3.9275 15.7325 -4.9175 15.4025 -5.9375 15.0625 C-5.79723717 12.74965544 -5.65014442 10.43722409 -5.5 8.125 C-5.41878906 6.83722656 -5.33757813 5.54945312 -5.25390625 4.22265625 C-4.83880881 0.07680649 -4.83880881 0.07680649 0 0 Z M6.0625 2.0625 C6.0625 4.3725 6.0625 6.6825 6.0625 9.0625 C8.7025 9.0625 11.3425 9.0625 14.0625 9.0625 C14.0625 16.6525 14.0625 24.2425 14.0625 32.0625 C16.3725 32.0625 18.6825 32.0625 21.0625 32.0625 C21.0625 24.4725 21.0625 16.8825 21.0625 9.0625 C23.3725 9.0625 25.6825 9.0625 28.0625 9.0625 C28.0625 6.7525 28.0625 4.4425 28.0625 2.0625 C20.8025 2.0625 13.5425 2.0625 6.0625 2.0625 Z " fill="#F7CEAE" transform="translate(34.9375,42.9375)"/>
<path d="M0 0 C2.64 0 5.28 0 8 0 C8 10.56 8 21.12 8 32 C5.36 32 2.72 32 0 32 C0 21.44 0 10.88 0 0 Z " fill="#7B7B7B" transform="translate(120,68)"/>
<path d="M0 0 C-1.32 0.66 -2.64 1.32 -4 2 C-4.495 1.01 -4.495 1.01 -5 0 C-11.93 0 -18.86 0 -26 0 C-26 0.99 -26 1.98 -26 3 C-25.32453125 2.97679687 -24.6490625 2.95359375 -23.953125 2.9296875 C-22.61507812 2.90261719 -22.61507812 2.90261719 -21.25 2.875 C-19.92742188 2.84019531 -19.92742188 2.84019531 -18.578125 2.8046875 C-15.8864142 3.00860498 -14.30095026 3.63448279 -12 5 C-13.12535156 5.02578125 -14.25070313 5.0515625 -15.41015625 5.078125 C-28.76610678 5.51434522 -40.45554763 7.33996407 -52.3125 13.875 C-56.93080994 16.34965755 -59.68292937 17.4963611 -64.875 16.4375 C-67.3046875 15.68359375 -67.3046875 15.68359375 -69 15 C-68.34 14.34 -67.68 13.68 -67 13 C-64.5 13.375 -64.5 13.375 -62 14 C-59.33984152 14 -58.66602913 13.05432776 -56.625 11.375 C-41.12640513 -0.40171008 -18.93921066 -6.31307022 0 0 Z " fill="#F6BE93" transform="translate(83,30)"/>
<path d="M0 0 C2.3380478 3.65319969 2.15190107 6.74677017 2 11 C2 12.32 2 13.64 2 15 C1.21625 15.721875 0.4325 16.44375 -0.375 17.1875 C-3.80025111 20.8574119 -4.29140649 24.14560566 -5 29 C-5.64066406 29.07476562 -6.28132813 29.14953125 -6.94140625 29.2265625 C-13.11636455 30.15797478 -13.11636455 30.15797478 -18.125 33.625 C-21.70492912 37.1014131 -25.77409538 39.20078457 -30.1875 41.4375 C-30.88955566 41.80375488 -31.59161133 42.17000977 -32.31494141 42.54736328 C-36.01197815 44.37951525 -38.06446803 45.31039823 -42 44 C-39.525 43.505 -39.525 43.505 -37 43 C-38.89755144 40.65026182 -38.89755144 40.65026182 -42.125 40.875 C-43.07375 40.91625 -44.0225 40.9575 -45 41 C-45 40.67 -45 40.34 -45 40 C-43.865625 39.68546875 -42.73125 39.3709375 -41.5625 39.046875 C-30.42980064 35.92158055 -30.42980064 35.92158055 -20 31 C-20 30.34 -20 29.68 -20 29 C-15.38 28.67 -10.76 28.34 -6 28 C-6 25.69 -6 23.38 -6 21 C-6.99 20.67 -7.98 20.34 -9 20 C-8.21625 19.938125 -7.4325 19.87625 -6.625 19.8125 C-3.86348716 19.27916917 -3.86348716 19.27916917 -2.8125 17 C-0.45548323 8.62933119 -0.45548323 8.62933119 0 0 Z " fill="#F4C6A2" transform="translate(90,46)"/>
<path d="M0 0 C1.32 0 2.64 0 4 0 C4 9.24 4 18.48 4 28 C2.68 28 1.36 28 0 28 C0 18.76 0 9.52 0 0 Z " fill="#656565" transform="translate(122,70)"/>
<path d="M0 0 C0 0.66 0 1.32 0 2 C-7.35959349 5.24687948 -14.47205324 5.12878278 -22.375 5.0625 C-23.39722656 5.05798828 -24.41945313 5.05347656 -25.47265625 5.04882812 C-27.98183194 5.037103 -30.4908849 5.02069176 -33 5 C-33 4.67 -33 4.34 -33 4 C-31.35 3.67 -29.7 3.34 -28 3 C-28.33 2.34 -28.66 1.68 -29 1 C-28.43079834 0.97494385 -27.86159668 0.9498877 -27.27514648 0.92407227 C-24.66242687 0.80706106 -22.04997638 0.6848172 -19.4375 0.5625 C-18.09461914 0.50352539 -18.09461914 0.50352539 -16.72460938 0.44335938 C-12.76845359 0.254971 -8.8852052 0.03431627 -4.97265625 -0.59765625 C-2 -1 -2 -1 0 0 Z " fill="#F86306" transform="translate(53,87)"/>
<path d="M0 0 C1.22589844 -0.00257812 2.45179687 -0.00515625 3.71484375 -0.0078125 C6.39012431 0.09832465 8.53177428 0.32582346 11.0625 1.125 C11.0625 1.785 11.0625 2.445 11.0625 3.125 C11.7225 3.455 12.3825 3.785 13.0625 4.125 C12.7325 4.785 12.4025 5.445 12.0625 6.125 C4.59156777 6.42383729 -2.56794989 5.28425507 -9.9375 4.125 C-9.9375 3.135 -9.9375 2.145 -9.9375 1.125 C-6.45291293 -0.03652902 -3.67059492 -0.00770324 0 0 Z " fill="#F66D14" transform="translate(66.9375,28.875)"/>
<path d="M0 0 C0.5775 0.20625 1.155 0.4125 1.75 0.625 C-1.79115043 4.50371804 -5.04093528 6.82155678 -9.8125 9 C-10.92753906 9.52335937 -12.04257812 10.04671875 -13.19140625 10.5859375 C-16.21431389 11.61287675 -17.36189922 11.82543308 -20.25 10.625 C-18.6 10.295 -16.95 9.965 -15.25 9.625 C-17.14755144 7.27526182 -17.14755144 7.27526182 -20.375 7.5 C-21.32375 7.54125 -22.2725 7.5825 -23.25 7.625 C-23.25 7.295 -23.25 6.965 -23.25 6.625 C-22.06921875 6.28726563 -20.8884375 5.94953125 -19.671875 5.6015625 C-18.11452471 5.15124434 -16.55723627 4.70071229 -15 4.25 C-14.22269531 4.02828125 -13.44539063 3.8065625 -12.64453125 3.578125 C-11.51337891 3.24941406 -11.51337891 3.24941406 -10.359375 2.9140625 C-9.66811523 2.71506348 -8.97685547 2.51606445 -8.26464844 2.31103516 C-6.18790771 1.66083006 -6.18790771 1.66083006 -4.13378906 0.52099609 C-2.25 -0.375 -2.25 -0.375 0 0 Z " fill="#F5A775" transform="translate(68.25,79.375)"/>
<path d="M0 0 C2.64 0 5.28 0 8 0 C8 10.23 8 20.46 8 31 C7.34 30.67 6.68 30.34 6 30 C6.33 20.76 6.66 11.52 7 2 C5.02 2 3.04 2 1 2 C1 6.62 1 11.24 1 16 C0.01 15.67 -0.98 15.34 -2 15 C-1.85973717 12.68715544 -1.71264442 10.37472409 -1.5625 8.0625 C-1.48128906 6.77472656 -1.40007813 5.48695312 -1.31640625 4.16015625 C-1 1 -1 1 0 0 Z " fill="#F4B586" transform="translate(31,43)"/>
<path d="M0 0 C1.42336877 2.84673755 1.00758837 5.14615347 0.87890625 8.3203125 C0.83056641 9.57714844 0.78222656 10.83398438 0.73242188 12.12890625 C0.67634766 13.44761719 0.62027344 14.76632813 0.5625 16.125 C0.50927587 17.46482438 0.45653549 18.80466808 0.40429688 20.14453125 C0.27429992 23.42990887 0.13932314 26.71500678 0 30 C2.31 30 4.62 30 7 30 C7 25.38 7 20.76 7 16 C7.66 16 8.32 16 9 16 C8.67 20.95 8.34 25.9 8 31 C5.03 31 2.06 31 -1 31 C-1.33 25.72 -1.66 20.44 -2 15 C-2.99 15.99 -3.98 16.98 -5 18 C-5.66 17.67 -6.32 17.34 -7 17 C-5.63016497 13.83884224 -5.0109362 13.0072908 -2 11 C-1.45508626 8.60691231 -1.45508626 8.60691231 -1.375 5.9375 C-1.08244275 1.08244275 -1.08244275 1.08244275 0 0 Z " fill="#F7D1B0" transform="translate(13,45)"/>
<path d="M0 0 C1.3308911 2.66178221 1.11268993 4.68739396 1.09765625 7.6640625 C1.09443359 8.78554688 1.09121094 9.90703125 1.08789062 11.0625 C1.07951172 12.238125 1.07113281 13.41375 1.0625 14.625 C1.05798828 15.80835938 1.05347656 16.99171875 1.04882812 18.2109375 C1.03701467 21.14067507 1.02054258 24.07031272 1 27 C1.99 27 2.98 27 4 27 C4 22.71 4 18.42 4 14 C4.33 14 4.66 14 5 14 C5.33 18.95 5.66 23.9 6 29 C3.69 29 1.38 29 -1 29 C-1.02465881 25.03069011 -1.04284023 21.06140966 -1.05493164 17.09204102 C-1.05997057 15.74079614 -1.06680177 14.38955674 -1.07543945 13.03833008 C-1.08752419 11.09979566 -1.09269828 9.161222 -1.09765625 7.22265625 C-1.10289307 6.05484619 -1.10812988 4.88703613 -1.11352539 3.68383789 C-1 1 -1 1 0 0 Z " fill="#F66207" transform="translate(14,46)"/>
<path d="M0 0 C11.22 0 22.44 0 34 0 C23.83900057 5.08049971 10.70835349 4.00585361 0 1 C0 0.67 0 0.34 0 0 Z " fill="#F6BB8D" transform="translate(14,91)"/>
<path d="M0 0 C0.33 0 0.66 0 1 0 C1 6.93 1 13.86 1 21 C2.32 21 3.64 21 5 21 C5 14.07 5 7.14 5 0 C5.33 0 5.66 0 6 0 C6.33 7.59 6.66 15.18 7 23 C4.69 23 2.38 23 0 23 C0 15.41 0 7.82 0 0 Z " fill="#F75F07" transform="translate(49,52)"/>
<path d="M0 0 C0 0.66 0 1.32 0 2 C0.99 2.33 1.98 2.66 3 3 C-8.140818 9.77637383 -8.140818 9.77637383 -14.75 8.375 C-16.1791031 7.95705475 -17.60231364 7.51330959 -19 7 C-18.34 6.34 -17.68 5.68 -17 5 C-14.5 5.375 -14.5 5.375 -12 6 C-9.19925162 6 -8.17115852 4.72415529 -6 3 C-2.22222222 0 -2.22222222 0 0 0 Z " fill="#F4AD83" transform="translate(33,38)"/>
<path d="M0 0 C0 0.66 0 1.32 0 2 C-5.71058694 4.04762082 -9.98281777 4.01284465 -15.9375 3.125 C-16.71673828 3.02058594 -17.49597656 2.91617188 -18.29882812 2.80859375 C-20.20098993 2.55186025 -22.10078949 2.27772482 -24 2 C-24 1.67 -24 1.34 -24 1 C-20.37588588 0.63634227 -16.75063063 0.28568634 -13.125 -0.0625 C-12.09246094 -0.16626953 -11.05992188 -0.27003906 -9.99609375 -0.37695312 C-9.00996094 -0.47041016 -8.02382813 -0.56386719 -7.0078125 -0.66015625 C-6.09660645 -0.74918213 -5.18540039 -0.83820801 -4.24658203 -0.92993164 C-2 -1 -2 -1 0 0 Z " fill="#F47019" transform="translate(53,87)"/>
<path d="M0 0 C2.64 0 5.28 0 8 0 C8.86375896 1.61992165 9.71575854 3.24611861 10.5625 4.875 C11.03816406 5.77992187 11.51382813 6.68484375 12.00390625 7.6171875 C12.49697266 8.79667969 12.49697266 8.79667969 13 10 C12.67 10.66 12.34 11.32 12 12 C10 11 10 11 9.1484375 8.93359375 C8.89320312 8.10988281 8.63796875 7.28617187 8.375 6.4375 C8.11460938 5.61121094 7.85421875 4.78492187 7.5859375 3.93359375 C7.39257812 3.29550781 7.19921875 2.65742187 7 2 C5.02 2 3.04 2 1 2 C0.67 2.66 0.34 3.32 0 4 C0 2.68 0 1.36 0 0 Z " fill="#828282" transform="translate(96,68)"/>
<path d="M0 0 C-0.33 4.62 -0.66 9.24 -1 14 C-1.33 14 -1.66 14 -2 14 C-2 12.02 -2 10.04 -2 8 C-3.32 7.67 -4.64 7.34 -6 7 C-3.60526316 0 -3.60526316 0 0 0 Z " fill="#F49C64" transform="translate(8,61)"/>
<path d="M0 0 C2.3380478 3.65319969 2.15190107 6.74677017 2 11 C2 12.32 2 13.64 2 15 C0.02 15.99 0.02 15.99 -2 17 C-1.855625 16.19175781 -1.71125 15.38351563 -1.5625 14.55078125 C-1.376875 13.48214844 -1.19125 12.41351563 -1 11.3125 C-0.814375 10.25675781 -0.62875 9.20101562 -0.4375 8.11328125 C-0.04931926 5.35095938 0.08259976 2.78257957 0 0 Z " fill="#F5B68D" transform="translate(90,46)"/>
<path d="M0 0 C3.88561424 0.57564655 6.04613357 2.51253354 9 5 C9.66 5.33 10.32 5.66 11 6 C11 6.66 11 7.32 11 8 C11.99 8.33 12.98 8.66 14 9 C9.62094986 8.49080812 6.53884503 7.67804488 3 5 C1.1875 2.3125 1.1875 2.3125 0 0 Z " fill="#F39154" transform="translate(2,82)"/>
<path d="M0 0 C4.52346473 2.26173236 5.05828666 3.53405933 7 8 C5.68 7.67 4.36 7.34 3 7 C3 5.68 3 4.36 3 3 C2.34 3 1.68 3 1 3 C1 6.96 1 10.92 1 15 C0.67 15 0.34 15 0 15 C0 10.05 0 5.1 0 0 Z " fill="#F47F2F" transform="translate(19,58)"/>
<path d="M0 0 C5.35152885 0.32433508 8.28280043 3.49704824 12 7 C11.67 7.66 11.34 8.32 11 9 C9.68 8.34 8.36 7.68 7 7 C7 6.34 7 5.68 7 5 C5.5459375 4.5978125 5.5459375 4.5978125 4.0625 4.1875 C3.051875 3.795625 2.04125 3.40375 1 3 C0.67 2.01 0.34 1.02 0 0 Z " fill="#F4A370" transform="translate(83,31)"/>
<path d="M0 0 C6.93 0.495 6.93 0.495 14 1 C10.57905758 3.28062828 9.31812778 3.21925007 5.3125 3.125 C3.82169922 3.09792969 3.82169922 3.09792969 2.30078125 3.0703125 C1.54152344 3.04710937 0.78226563 3.02390625 0 3 C0 2.01 0 1.02 0 0 Z " fill="#FA6508" transform="translate(57,30)"/>
<path d="M0 0 C0.33 0 0.66 0 1 0 C1 2.31 1 4.62 1 7 C-2.06581069 8.0219369 -4.34800074 8.1986365 -7.5625 8.25 C-8.53316406 8.27578125 -9.50382812 8.3015625 -10.50390625 8.328125 C-11.32761719 8.21984375 -12.15132813 8.1115625 -13 8 C-13.66 7.01 -14.32 6.02 -15 5 C-14.505 5.165 -14.01 5.33 -13.5 5.5 C-9.96555911 6.20688818 -6.60309299 6.06005155 -3 6 C-2.01 4.02 -1.02 2.04 0 0 Z " fill="#F55F06" transform="translate(83,67)"/>
<path d="M0 0 C-0.33 1.32 -0.66 2.64 -1 4 C-3.97 4 -6.94 4 -10 4 C-10.33 3.34 -10.66 2.68 -11 2 C-7.17010894 0.19769832 -4.21878192 -0.19622241 0 0 Z " fill="#F56911" transform="translate(56,31)"/>
<path d="M0 0 C0.66 0.66 1.32 1.32 2 2 C0.68 2.33 -0.64 2.66 -2 3 C-2 3.66 -2 4.32 -2 5 C-3.65 5 -5.3 5 -7 5 C-6.67 3.68 -6.34 2.36 -6 1 C-3.125 0.375 -3.125 0.375 0 0 Z " fill="#F47E3C" transform="translate(40,35)"/>
<path d="M0 0 C-1.62339805 1.70884005 -3.29319053 3.37446717 -5 5 C-5.66 5 -6.32 5 -7 5 C-6.625 2.5625 -6.625 2.5625 -6 0 C-3.50907189 -1.24546405 -2.58919267 -0.7767578 0 0 Z " fill="#F29866" transform="translate(70,80)"/>
<path d="M0 0 C2.5 0.375 2.5 0.375 5 1 C7.21081851 1.10540926 7.21081851 1.10540926 10 0 C10.66 0.66 11.32 1.32 12 2 C9.56661348 3.53508028 8.32875493 4.03088304 5.421875 3.7578125 C4.09929688 3.44457031 4.09929688 3.44457031 2.75 3.125 C1.85796875 2.92132813 0.9659375 2.71765625 0.046875 2.5078125 C-0.62859375 2.34023438 -1.3040625 2.17265625 -2 2 C-1.34 1.34 -0.68 0.68 0 0 Z " fill="#F4CEAF" transform="translate(16,43)"/>
<path d="M0 0 C0.66 0.66 1.32 1.32 2 2 C4.32275177 2.40047444 6.65739357 2.7397104 9 3 C9 3.66 9 4.32 9 5 C6.03 5 3.06 5 0 5 C0 3.35 0 1.7 0 0 Z " fill="#7C7C7C" transform="translate(109,95)"/>
<path d="M0 0 C0.33 0.99 0.66 1.98 1 3 C-0.32 4.32 -1.64 5.64 -3 7 C-3.66 6.67 -4.32 6.34 -5 6 C-3.63016497 2.83884224 -3.0109362 2.0072908 0 0 Z " fill="#F4D3B8" transform="translate(11,56)"/>
<path d="M0 0 C0.66 0.99 1.32 1.98 2 3 C1.34 3.66 0.68 4.32 0 5 C-0.39764263 6.98821313 -0.73775349 8.98944339 -1 11 C-1.33 11 -1.66 11 -2 11 C-2 9.02 -2 7.04 -2 5 C-2.66 4.67 -3.32 4.34 -4 4 C-3.01 4 -2.02 4 -1 4 C-0.67 2.68 -0.34 1.36 0 0 Z " fill="#F6EDE0" transform="translate(87,61)"/>
</svg>
